<?xml version="1.0" standalone="no"?>
<!DOCTYPE svg PUBLIC "-//W3C//DTD SVG 20010904//EN"
 "http://www.w3.org/TR/2001/REC-SVG-20010904/DTD/svg10.dtd">
<svg version="1.0" xmlns="http://www.w3.org/2000/svg"
 width="860.000000pt" height="800.000000pt" viewBox="0 0 860.000000 800.000000"
 preserveAspectRatio="xMidYMid meet">

<g transform="translate(0.000000,800.000000) scale(0.100000,-0.100000)"
fill="#000000" stroke="none">
<path d="M4951 7639 c6 -13 28 -42 47 -63 34 -38 34 -40 29 -103 -12 -127 -84
-233 -195 -288 -91 -46 -176 -58 -372 -52 -148 4 -212 11 -415 48 -382 68
-551 59 -800 -40 -178 -72 -335 -192 -386 -296 -20 -42 -24 -64 -23 -137 0
-49 -3 -88 -7 -88 -14 0 -270 -160 -331 -206 -244 -188 -428 -516 -489 -875
-18 -107 -21 -151 -16 -314 8 -299 45 -466 232 -1040 168 -515 223 -725 256
-975 17 -132 15 -409 -5 -560 -9 -69 -16 -193 -16 -280 0 -172 -13 -268 -38
-287 -20 -16 -137 -17 -183 -2 -93 31 -140 102 -147 219 l-4 76 36 31 c32 29
54 37 126 46 24 3 24 3 -10 25 -118 75 -250 -44 -279 -253 -18 -123 18 -225
107 -306 66 -60 153 -103 256 -124 44 -9 83 -18 87 -20 11 -7 51 -120 108
-300 72 -229 114 -293 276 -419 378 -296 1158 -681 1423 -703 89 -7 165 19
349 122 76 42 218 121 316 176 201 112 600 358 844 520 161 108 161 108 183
165 13 36 27 111 36 203 19 186 26 222 44 231 8 4 53 19 100 34 249 80 375
253 326 446 -17 66 -52 138 -89 183 -18 21 -35 28 -92 36 -38 5 -74 5 -78 1
-5 -4 15 -21 44 -36 80 -43 116 -121 97 -206 -19 -86 -123 -156 -245 -166
l-62 -5 -5 34 c-3 19 -15 160 -26 314 -11 154 -28 338 -36 409 -12 98 -15 183
-11 345 8 346 51 553 240 1141 163 505 195 630 218 855 13 135 7 323 -15 426
-8 36 -31 117 -51 180 -20 63 -39 146 -42 186 l-6 71 31 16 c112 58 247 -70
300 -284 29 -119 49 -88 51 80 1 117 -14 190 -55 273 -33 65 -64 105 -181 234
-90 99 -173 213 -173 239 0 16 78 54 111 54 69 0 165 -74 209 -160 28 -55 52
-54 44 3 -20 151 -51 231 -114 300 -61 67 -130 104 -295 157 -71 23 -172 62
-222 87 -103 50 -108 58 -78 131 35 83 141 152 235 152 52 0 57 13 17 44 -142
108 -315 78 -624 -107 -119 -71 -187 -107 -203 -107 -15 0 -12 46 7 107 14 45
15 63 6 107 -36 171 -160 288 -331 311 l-54 7 13 -23z m-1171 -2343 c41 -8
142 -32 224 -55 l149 -40 236 45 c448 87 668 72 870 -60 169 -110 307 -310
400 -579 137 -399 174 -914 102 -1437 -11 -80 -27 -226 -36 -325 -25 -279 -55
-400 -117 -471 -55 -62 -112 -44 -240 75 -134 124 -225 177 -385 223 -115 33
-327 33 -433 0 -111 -35 -205 -89 -279 -159 -36 -35 -70 -63 -75 -63 -4 0 -29
15 -55 34 -243 175 -521 249 -759 200 -94 -19 -236 -85 -319 -148 -61 -46
-203 -192 -203 -208 0 -4 -11 -8 -24 -8 -19 0 -29 14 -64 88 -99 214 -173 578
-203 1007 -14 204 -7 598 14 770 9 66 18 212 22 323 3 112 12 237 20 278 25
130 101 252 208 331 73 54 101 67 312 144 l160 59 200 -5 c113 -2 233 -11 275
-19z m534 -3090 c233 -60 474 -219 545 -361 66 -132 24 -244 -120 -328 -101
-58 -131 -62 -524 -62 -361 0 -534 12 -600 39 -65 27 -134 137 -157 250 l-12
56 64 66 c109 111 235 217 317 266 60 36 102 53 183 72 135 31 185 32 304 2z"/>
</g>
</svg>
